# xmcd CD database file
#
# Track frame offsets:
#	150
#	12564
#	23761
#	39401
#	50252
#	61564
#	72473
#	83878
#	100940
#	113850
#	132370
#	148458
#	166530
#	181861
#	199764
#	217317
#	230317
#
# Disc length: 3305 seconds
#
# Revision: 0
# Processed by: cddbd v1.4PL0 Copyright (c) Steve Scherf et al.
# Submitted via: CdAid (MTCDDB.DLL V2003.07.15)
#
DISCID=ec0ce711
DTITLE=It's M.E. - right between the devil and the deep blue sea
DYEAR=1999
DGENRE=Blues
TTITLE0=I'm Bad
TTITLE1=Strange Things Happen
TTITLE2=Damn Your Eyes
TTITLE3=I Wanna Be Loved By You
TTITLE4=Guilty Of Love
TTITLE5=Venus
TTITLE6=Ich Bin Von Kopf Bis Fuﬂ Auf Liebe Eingestellt
TTITLE7=She's Driving Me Mad
TTITLE8=It Comes To Me Naturally
TTITLE9=Love Lies
TTITLE10=Calling For Emotions
TTITLE11=I'll Be There
TTITLE12=Stella
TTITLE13=W.O.M.A.N.
TTITLE14=Physical Attraction
TTITLE15=Anytime I Will Miss You
TTITLE16=My Way
EXTD=ID3G:   0 YEAR: 1999
EXTT0=
EXTT1=
EXTT2=
EXTT3=
EXTT4=
EXTT5=
EXTT6=
EXTT7=
EXTT8=
EXTT9=
EXTT10=
EXTT11=
EXTT12=
EXTT13=
EXTT14=
EXTT15=
EXTT16=
PLAYORDER=
